<?xml version="1.0" encoding="UTF-8" standalone="no"?>
<!-- Created with Inkscape (http://www.inkscape.org/) -->

<svg
   xmlns:dc="http://purl.org/dc/elements/1.1/"
   xmlns:cc="http://creativecommons.org/ns#"
   xmlns:rdf="http://www.w3.org/1999/02/22-rdf-syntax-ns#"
   xmlns:svg="http://www.w3.org/2000/svg"
   xmlns="http://www.w3.org/2000/svg"
   xmlns:xlink="http://www.w3.org/1999/xlink"
   xmlns:sodipodi="http://sodipodi.sourceforge.net/DTD/sodipodi-0.dtd"
   xmlns:inkscape="http://www.inkscape.org/namespaces/inkscape"
   width="744"
   height="744"
   id="svg4196"
   version="1.1"
   inkscape:version="0.48.5 r10040"
   sodipodi:docname="Documento nuevo 15">
  <defs
     id="defs4198">
    <filter
       color-interpolation-filters="sRGB"
       inkscape:collect="always"
       id="filter4041"
       x="-0.11133861"
       width="1.2226772"
       y="-4.1560683"
       height="9.3121367">
      <feGaussianBlur
         inkscape:collect="always"
         stdDeviation="8.541759"
         id="feGaussianBlur4043" />
    </filter>
    <radialGradient
       inkscape:collect="always"
       xlink:href="#linearGradient4119"
       id="radialGradient4151"
       gradientUnits="userSpaceOnUse"
       gradientTransform="matrix(-1,0,0,-0.68084677,3206.3281,1968.4628)"
       cx="1602.1331"
       cy="1154.4141"
       fx="1602.1331"
       fy="1154.4141"
       r="87.0625" />
    <linearGradient
       id="linearGradient4119">
      <stop
         style="stop-color:#315b99;stop-opacity:1;"
         offset="0"
         id="stop4121" />
      <stop
         style="stop-color:#192e4e;stop-opacity:1;"
         offset="1"
         id="stop4123" />
    </linearGradient>
    <filter
       color-interpolation-filters="sRGB"
       inkscape:collect="always"
       id="filter4099">
      <feGaussianBlur
         inkscape:collect="always"
         stdDeviation="0.22353667"
         id="feGaussianBlur4101" />
    </filter>
    <filter
       color-interpolation-filters="sRGB"
       inkscape:collect="always"
       id="filter4081">
      <feGaussianBlur
         inkscape:collect="always"
         stdDeviation="0.31954912"
         id="feGaussianBlur4083" />
    </filter>
  </defs>
  <sodipodi:namedview
     id="base"
     pagecolor="#ffffff"
     bordercolor="#666666"
     borderopacity="1.0"
     inkscape:pageopacity="0.0"
     inkscape:pageshadow="2"
     inkscape:zoom="0.35"
     inkscape:cx="350"
     inkscape:cy="520"
     inkscape:document-units="px"
     inkscape:current-layer="layer1"
     showgrid="false"
     inkscape:window-width="1295"
     inkscape:window-height="745"
     inkscape:window-x="63"
     inkscape:window-y="-8"
     inkscape:window-maximized="1" />
  <metadata
     id="metadata4201">
    <rdf:RDF>
      <cc:Work
         rdf:about="">
        <dc:format>image/svg+xml</dc:format>
        <dc:type
           rdf:resource="http://purl.org/dc/dcmitype/StillImage" />
        <dc:title></dc:title>
      </cc:Work>
    </rdf:RDF>
  </metadata>
  <g
     inkscape:label="Capa 1"
     inkscape:groupmode="layer"
     id="layer1"
     transform="translate(0,-308.36218)">
    <g
       id="g4127"
       transform="matrix(2.210941,0,0,2.210941,-3172.5012,-2023.0803)">
      <path
         style="font-size:medium;font-style:normal;font-variant:normal;font-weight:normal;font-stretch:normal;text-indent:0;text-align:start;text-decoration:none;line-height:normal;letter-spacing:normal;word-spacing:normal;text-transform:none;direction:ltr;block-progression:tb;writing-mode:lr-tb;text-anchor:start;baseline-shift:baseline;color:#000000;fill:#000000;fill-opacity:1;stroke:none;stroke-width:1px;marker:none;visibility:visible;display:inline;overflow:visible;filter:url(#filter4041);enable-background:accumulate;font-family:Sans;-inkscape-font-specification:Sans"
         d="m 1535.0703,1243.3238 c -4.71,0 -9.4687,0.3544 -9.4687,0.6425 l 0,1.0908 c 0,0.331 -9.3166,0.6476 -14.5,0.733 5.1835,0.085 14.5,0.402 14.5,0.733 l 0,1.0908 c 0,0.2881 4.7587,0.6425 9.4687,0.6425 l 136.1875,0 c 4.71,0 9.4688,-0.3544 9.4688,-0.6425 l 0,-1.0908 c 0,-0.331 9.3164,-0.6476 14.5,-0.733 -5.1835,-0.085 -14.5,-0.402 -14.5,-0.733 l 0,-1.0908 c 0,-0.2881 -4.7588,-0.6425 -9.4688,-0.6425 z"
         id="path3255"
         inkscape:connector-curvature="0"
         sodipodi:nodetypes="ssscsssssscssss" />
      <path
         sodipodi:nodetypes="ssscsssssscssss"
         inkscape:connector-curvature="0"
         id="path3248"
         d="m 1540.0703,1176.7564 c -4.71,0 -9.4687,5.137 -9.4687,9.3126 l 0,15.8124 c 0,4.7983 -9.3166,9.3868 -14.5,10.625 5.1835,1.2383 14.5,5.8269 14.5,10.625 l 0,15.8126 c 0,4.1754 4.7587,9.3124 9.4687,9.3124 l 126.1875,0 c 4.71,0 9.4688,-5.137 9.4688,-9.3124 l 0,-15.8126 c 0,-4.7981 9.3164,-9.3867 14.5,-10.625 -5.1835,-1.2382 -14.5,-5.8267 -14.5,-10.625 l 0,-15.8124 c 0,-4.1756 -4.7588,-9.3126 -9.4688,-9.3126 z"
         style="font-size:medium;font-style:normal;font-variant:normal;font-weight:normal;font-stretch:normal;text-indent:0;text-align:start;text-decoration:none;line-height:normal;letter-spacing:normal;word-spacing:normal;text-transform:none;direction:ltr;block-progression:tb;writing-mode:lr-tb;text-anchor:start;baseline-shift:baseline;color:#000000;fill:url(#radialGradient4151);fill-opacity:1;stroke:none;stroke-width:1px;marker:none;visibility:visible;display:inline;overflow:visible;enable-background:accumulate;font-family:Sans;-inkscape-font-specification:Sans" />
      <g
         id="g4085"
         transform="translate(-20.992232,-187.98539)"
         style="fill:#000000;filter:url(#filter4099)">
        <g
           id="g4087"
           style="font-size:80.84896851px;font-style:normal;font-variant:normal;font-weight:bold;font-stretch:normal;line-height:125%;letter-spacing:0px;word-spacing:0px;fill:#000000;fill-opacity:1;stroke:none;font-family:PT Sans;-inkscape-font-specification:PT Sans Bold"
           transform="scale(1.0141347,0.98606231)">
          <path
             sodipodi:nodetypes="cssccccscsccc"
             inkscape:connector-curvature="0"
             id="path4089"
             style="letter-spacing:-2.82999992px;fill:#000000;font-family:PT Sans;-inkscape-font-specification:PT Sans Bold"
             d="m 1552.9083,1428.393 c -10e-5,1.8867 0.2426,3.261 0.7278,4.1229 0.4852,0.8619 1.2666,1.2929 2.344,1.2929 0.6464,0 1.2797,-0.054 1.8998,-0.1616 0.6201,-0.1078 1.3882,-0.35 2.3045,-0.7267 l 1.1325,8.2458 c -0.8636,0.431 -2.1845,0.8623 -3.9625,1.2941 -1.7782,0.4318 -3.6106,0.6477 -5.4972,0.6477 -3.0727,0 -5.4174,-0.7143 -7.0343,-2.1429 -1.617,-1.4286 -2.4254,-3.7869 -2.4254,-7.075 l 0,-48.5099 10.5106,0 z" />
          <path
             id="path4091"
             style="letter-spacing:-2.82999992px;fill:#000000;font-family:PT Sans;-inkscape-font-specification:PT Sans Bold"
             d="m 1595.4275,1438.4991 c -1.6169,1.2929 -3.8133,2.3843 -6.589,3.2742 -2.7757,0.8898 -5.727,1.3348 -8.8539,1.3348 -6.522,0 -11.2921,-1.9003 -14.3104,-5.7007 -3.0184,-3.8005 -4.5276,-9.0152 -4.5276,-15.6441 0,-7.114 1.6979,-12.45 5.0938,-16.0079 3.3958,-3.5578 8.1664,-5.3368 14.3117,-5.3368 2.0478,0 4.0418,0.2698 5.982,0.8093 1.9401,0.5395 3.6647,1.429 5.1739,2.6684 1.5092,1.2394 2.7218,2.9102 3.6381,5.0123 0.9161,2.1022 1.3742,4.7159 1.3743,7.8412 -10e-5,1.1333 -0.067,2.3464 -0.2023,3.6392 -0.135,1.2929 -0.3365,2.6401 -0.6045,4.0415 l -24.2562,0 c 0.1612,3.3967 1.0371,5.9574 2.6277,7.682 1.5906,1.7247 4.164,2.587 7.7202,2.587 2.2107,0 4.1919,-0.3368 5.9438,-1.0104 1.7517,-0.6736 3.0857,-1.3607 4.002,-2.0614 z m -15.0383,-29.6719 c -2.7486,0 -4.7833,0.8221 -6.1041,2.4661 -1.3209,1.6441 -2.1162,3.8404 -2.3859,6.589 l 15.0383,0 c 0.2154,-2.9098 -0.2291,-5.1464 -1.3336,-6.7099 -1.1046,-1.5634 -2.8428,-2.3452 -5.2147,-2.3452 z"
             inkscape:connector-curvature="0" />
          <path
             id="path4093"
             style="letter-spacing:-2.82999992px;fill:#000000;font-family:PT Sans;-inkscape-font-specification:PT Sans Bold"
             d="m 1618.0503,1430.8184 c 0,-1.0774 -0.4581,-1.9397 -1.3743,-2.587 -0.9162,-0.6472 -2.0483,-1.2402 -3.3962,-1.7789 -1.348,-0.5387 -2.8305,-1.091 -4.4474,-1.6568 -1.6169,-0.5658 -3.0989,-1.3476 -4.4461,-2.3452 -1.3471,-0.9976 -2.4788,-2.2642 -3.395,-3.7997 -0.9162,-1.5354 -1.3743,-3.5163 -1.3743,-5.9425 0,-3.9888 1.1856,-7.0343 3.5566,-9.1365 2.3711,-2.1021 5.7937,-3.1532 10.2678,-3.1532 3.0726,0 5.8483,0.3237 8.3272,0.9709 2.4788,0.6473 4.4189,1.3747 5.8204,2.1823 l -2.344,7.5994 c -1.2403,-0.4852 -2.8033,-0.9972 -4.6891,-1.5359 -1.8859,-0.5387 -3.7993,-0.8081 -5.7402,-0.8081 -3.127,0 -4.6904,1.2131 -4.6904,3.6393 0,0.9705 0.4585,1.7518 1.3755,2.344 0.917,0.5921 2.0491,1.1444 3.3963,1.6568 1.3471,0.5124 2.8292,1.065 4.4461,1.658 1.6169,0.593 3.0989,1.3611 4.4461,2.3045 1.3471,0.9433 2.4792,2.1696 3.3963,3.6787 0.9169,1.5092 1.3755,3.4498 1.3755,5.8217 0,4.0957 -1.3073,7.316 -3.9218,9.6607 -2.6146,2.3448 -6.5355,3.5172 -11.7629,3.5172 -2.8572,0 -5.5392,-0.3639 -8.046,-1.0918 -2.5067,-0.7279 -4.5415,-1.577 -6.1041,-2.5475 l 2.9114,-7.8411 c 1.2403,0.7007 2.8843,1.3878 4.9322,2.0614 2.0479,0.6736 4.15,1.0104 6.3065,1.0104 1.5626,0 2.8156,-0.2965 3.7589,-0.8895 0.9433,-0.593 1.415,-1.5902 1.415,-2.9916 z"
             inkscape:connector-curvature="0" />
          <path
             id="path4095"
             style="letter-spacing:-2.82999992px;fill:#000000;font-family:PT Sans;-inkscape-font-specification:PT Sans Bold"
             d="m 1649.3285,1430.8184 c 0,-1.0774 -0.4581,-1.9397 -1.3743,-2.587 -0.9162,-0.6472 -2.0483,-1.2402 -3.3963,-1.7789 -1.348,-0.5387 -2.8304,-1.091 -4.4473,-1.6568 -1.6169,-0.5658 -3.099,-1.3476 -4.4461,-2.3452 -1.3472,-0.9976 -2.4788,-2.2642 -3.395,-3.7997 -0.9162,-1.5354 -1.3743,-3.5163 -1.3743,-5.9425 0,-3.9888 1.1855,-7.0343 3.5566,-9.1365 2.3711,-2.1021 5.7937,-3.1532 10.2677,-3.1532 3.0726,0 5.8484,0.3237 8.3272,0.9709 2.4788,0.6473 4.4189,1.3747 5.8204,2.1823 l -2.3439,7.5994 c -1.2403,-0.4852 -2.8033,-0.9972 -4.6892,-1.5359 -1.8858,-0.5387 -3.7992,-0.8081 -5.7402,-0.8081 -3.1269,0 -4.6904,1.2131 -4.6903,3.6393 -10e-5,0.9705 0.4585,1.7518 1.3755,2.344 0.917,0.5921 2.0491,1.1444 3.3962,1.6568 1.3472,0.5124 2.8292,1.065 4.4461,1.658 1.6169,0.593 3.099,1.3611 4.4461,2.3045 1.3472,0.9433 2.4793,2.1696 3.3963,3.6787 0.917,1.5092 1.3755,3.4498 1.3755,5.8217 0,4.0957 -1.3073,7.316 -3.9218,9.6607 -2.6145,2.3448 -6.5355,3.5172 -11.7629,3.5172 -2.8571,0 -5.5391,-0.3639 -8.0459,-1.0918 -2.5068,-0.7279 -4.5415,-1.577 -6.1041,-2.5475 l 2.9114,-7.8411 c 1.2402,0.7007 2.8843,1.3878 4.9322,2.0614 2.0478,0.6736 4.15,1.0104 6.3064,1.0104 1.5626,0 2.8156,-0.2965 3.759,-0.8895 0.9433,-0.593 1.415,-1.5902 1.415,-2.9916 z"
             inkscape:connector-curvature="0" />
        </g>
        <path
           sodipodi:nodetypes="ccccc"
           inkscape:connector-curvature="0"
           id="path4097"
           d="m 1562.1874,1365.2783 12.6706,0 0,7.1787 -12.6706,0 z"
           style="fill:#000000;fill-opacity:1;stroke:none" />
      </g>
      <g
         style="fill:#ffffff"
         transform="translate(-20.992232,-188.52188)"
         id="g3232">
        <g
           transform="scale(1.0141347,0.98606231)"
           style="font-size:80.84896851px;font-style:normal;font-variant:normal;font-weight:bold;font-stretch:normal;line-height:125%;letter-spacing:0px;word-spacing:0px;fill:#ffffff;fill-opacity:1;stroke:none;font-family:PT Sans;-inkscape-font-specification:PT Sans Bold"
           id="text3899">
          <path
             d="m 1552.9083,1428.393 c -10e-5,1.8867 0.2426,3.261 0.7278,4.1229 0.4852,0.8619 1.2666,1.2929 2.344,1.2929 0.6464,0 1.2797,-0.054 1.8998,-0.1616 0.6201,-0.1078 1.3882,-0.35 2.3045,-0.7267 l 1.1325,8.2458 c -0.8636,0.431 -2.1845,0.8623 -3.9625,1.2941 -1.7782,0.4318 -3.6106,0.6477 -5.4972,0.6477 -3.0727,0 -5.4174,-0.7143 -7.0343,-2.1429 -1.617,-1.4286 -2.4254,-3.7869 -2.4254,-7.075 l 0,-48.5099 10.5106,0 z"
             style="letter-spacing:-2.82999992px;fill:#ffffff;font-family:PT Sans;-inkscape-font-specification:PT Sans Bold"
             id="path3207"
             inkscape:connector-curvature="0"
             sodipodi:nodetypes="cssccccscsccc" />
          <path
             inkscape:connector-curvature="0"
             d="m 1595.4275,1438.4991 c -1.6169,1.2929 -3.8133,2.3843 -6.589,3.2742 -2.7757,0.8898 -5.727,1.3348 -8.8539,1.3348 -6.522,0 -11.2921,-1.9003 -14.3104,-5.7007 -3.0184,-3.8005 -4.5276,-9.0152 -4.5276,-15.6441 0,-7.114 1.6979,-12.45 5.0938,-16.0079 3.3958,-3.5578 8.1664,-5.3368 14.3117,-5.3368 2.0478,0 4.0418,0.2698 5.982,0.8093 1.9401,0.5395 3.6647,1.429 5.1739,2.6684 1.5092,1.2394 2.7218,2.9102 3.6381,5.0123 0.9161,2.1022 1.3742,4.7159 1.3743,7.8412 -10e-5,1.1333 -0.067,2.3464 -0.2023,3.6392 -0.135,1.2929 -0.3365,2.6401 -0.6045,4.0415 l -24.2562,0 c 0.1612,3.3967 1.0371,5.9574 2.6277,7.682 1.5906,1.7247 4.164,2.587 7.7202,2.587 2.2107,0 4.1919,-0.3368 5.9438,-1.0104 1.7517,-0.6736 3.0857,-1.3607 4.002,-2.0614 z m -15.0383,-29.6719 c -2.7486,0 -4.7833,0.8221 -6.1041,2.4661 -1.3209,1.6441 -2.1162,3.8404 -2.3859,6.589 l 15.0383,0 c 0.2154,-2.9098 -0.2291,-5.1464 -1.3336,-6.7099 -1.1046,-1.5634 -2.8428,-2.3452 -5.2147,-2.3452 z"
             style="letter-spacing:-2.82999992px;fill:#ffffff;font-family:PT Sans;-inkscape-font-specification:PT Sans Bold"
             id="path3209" />
          <path
             inkscape:connector-curvature="0"
             d="m 1618.0503,1430.8184 c 0,-1.0774 -0.4581,-1.9397 -1.3743,-2.587 -0.9162,-0.6472 -2.0483,-1.2402 -3.3962,-1.7789 -1.348,-0.5387 -2.8305,-1.091 -4.4474,-1.6568 -1.6169,-0.5658 -3.0989,-1.3476 -4.4461,-2.3452 -1.3471,-0.9976 -2.4788,-2.2642 -3.395,-3.7997 -0.9162,-1.5354 -1.3743,-3.5163 -1.3743,-5.9425 0,-3.9888 1.1856,-7.0343 3.5566,-9.1365 2.3711,-2.1021 5.7937,-3.1532 10.2678,-3.1532 3.0726,0 5.8483,0.3237 8.3272,0.9709 2.4788,0.6473 4.4189,1.3747 5.8204,2.1823 l -2.344,7.5994 c -1.2403,-0.4852 -2.8033,-0.9972 -4.6891,-1.5359 -1.8859,-0.5387 -3.7993,-0.8081 -5.7402,-0.8081 -3.127,0 -4.6904,1.2131 -4.6904,3.6393 0,0.9705 0.4585,1.7518 1.3755,2.344 0.917,0.5921 2.0491,1.1444 3.3963,1.6568 1.3471,0.5124 2.8292,1.065 4.4461,1.658 1.6169,0.593 3.0989,1.3611 4.4461,2.3045 1.3471,0.9433 2.4792,2.1696 3.3963,3.6787 0.9169,1.5092 1.3755,3.4498 1.3755,5.8217 0,4.0957 -1.3073,7.316 -3.9218,9.6607 -2.6146,2.3448 -6.5355,3.5172 -11.7629,3.5172 -2.8572,0 -5.5392,-0.3639 -8.046,-1.0918 -2.5067,-0.7279 -4.5415,-1.577 -6.1041,-2.5475 l 2.9114,-7.8411 c 1.2403,0.7007 2.8843,1.3878 4.9322,2.0614 2.0479,0.6736 4.15,1.0104 6.3065,1.0104 1.5626,0 2.8156,-0.2965 3.7589,-0.8895 0.9433,-0.593 1.415,-1.5902 1.415,-2.9916 z"
             style="letter-spacing:-2.82999992px;fill:#ffffff;font-family:PT Sans;-inkscape-font-specification:PT Sans Bold"
             id="path3211" />
          <path
             inkscape:connector-curvature="0"
             d="m 1649.3285,1430.8184 c 0,-1.0774 -0.4581,-1.9397 -1.3743,-2.587 -0.9162,-0.6472 -2.0483,-1.2402 -3.3963,-1.7789 -1.348,-0.5387 -2.8304,-1.091 -4.4473,-1.6568 -1.6169,-0.5658 -3.099,-1.3476 -4.4461,-2.3452 -1.3472,-0.9976 -2.4788,-2.2642 -3.395,-3.7997 -0.9162,-1.5354 -1.3743,-3.5163 -1.3743,-5.9425 0,-3.9888 1.1855,-7.0343 3.5566,-9.1365 2.3711,-2.1021 5.7937,-3.1532 10.2677,-3.1532 3.0726,0 5.8484,0.3237 8.3272,0.9709 2.4788,0.6473 4.4189,1.3747 5.8204,2.1823 l -2.3439,7.5994 c -1.2403,-0.4852 -2.8033,-0.9972 -4.6892,-1.5359 -1.8858,-0.5387 -3.7992,-0.8081 -5.7402,-0.8081 -3.1269,0 -4.6904,1.2131 -4.6903,3.6393 -10e-5,0.9705 0.4585,1.7518 1.3755,2.344 0.917,0.5921 2.0491,1.1444 3.3962,1.6568 1.3472,0.5124 2.8292,1.065 4.4461,1.658 1.6169,0.593 3.099,1.3611 4.4461,2.3045 1.3472,0.9433 2.4793,2.1696 3.3963,3.6787 0.917,1.5092 1.3755,3.4498 1.3755,5.8217 0,4.0957 -1.3073,7.316 -3.9218,9.6607 -2.6145,2.3448 -6.5355,3.5172 -11.7629,3.5172 -2.8571,0 -5.5391,-0.3639 -8.0459,-1.0918 -2.5068,-0.7279 -4.5415,-1.577 -6.1041,-2.5475 l 2.9114,-7.8411 c 1.2402,0.7007 2.8843,1.3878 4.9322,2.0614 2.0478,0.6736 4.15,1.0104 6.3064,1.0104 1.5626,0 2.8156,-0.2965 3.759,-0.8895 0.9433,-0.593 1.415,-1.5902 1.415,-2.9916 z"
             style="letter-spacing:-2.82999992px;fill:#ffffff;font-family:PT Sans;-inkscape-font-specification:PT Sans Bold"
             id="path3213" />
        </g>
        <path
           style="fill:#ffffff;fill-opacity:1;stroke:none"
           d="m 1562.1874,1365.2783 12.6706,0 0,7.1787 -12.6706,0 z"
           id="rect3163"
           inkscape:connector-curvature="0"
           sodipodi:nodetypes="ccccc" />
      </g>
      <g
         id="g4071"
         style="opacity:0.5;fill:#000000;fill-opacity:1;filter:url(#filter4081)"
         transform="translate(-20.992232,-187.74376)">
        <path
           inkscape:connector-curvature="0"
           style="font-size:medium;font-style:normal;font-variant:normal;font-weight:normal;font-stretch:normal;text-indent:0;text-align:start;text-decoration:none;line-height:normal;letter-spacing:normal;word-spacing:normal;text-transform:none;direction:ltr;block-progression:tb;writing-mode:lr-tb;text-anchor:start;baseline-shift:baseline;color:#000000;fill:#000000;fill-opacity:1;stroke:none;stroke-width:1px;marker:none;visibility:visible;display:inline;overflow:visible;enable-background:accumulate;font-family:Sans;-inkscape-font-specification:Sans"
           d="m 1692.251,1365.2671 c 4.71,0 9.4638,5.1371 9.4638,9.3126 l 0,15.8124 c 0,4.7983 9.3277,9.3868 14.5112,10.625 -5.1835,1.2383 -14.5112,5.8268 -14.5112,10.625 l 0,15.8126 c 0,4.1754 -4.7538,9.3124 -9.4638,9.3124 l -6.5896,0 0,-6.9062 c 5.1482,0 6.87,-2.3338 6.87,-4.25 l 0,-13.75 c 0,-6.1276 5.3486,-10.8438 9.5689,-10.8438 -4.2203,0 -9.5689,-4.7161 -9.5689,-10.8437 l 0,-13.75 c 0,-1.9162 -1.7218,-4.25 -6.87,-4.25 l 0,-6.9063 6.5896,0 z"
           id="path4073" />
        <path
           id="path4075"
           d="m 1556.0617,1365.2671 c -4.71,0 -9.4638,5.1371 -9.4638,9.3126 l 0,15.8124 c 0,4.7983 -9.3277,9.3868 -14.5112,10.625 5.1835,1.2383 14.5112,5.8268 14.5112,10.625 l 0,15.8126 c 0,4.1754 4.7538,9.3124 9.4638,9.3124 l 6.5896,0 0,-6.9062 c -5.1482,0 -6.87,-2.3338 -6.87,-4.25 l 0,-13.75 c 0,-6.1276 -5.3486,-10.8438 -9.5689,-10.8438 4.2203,0 9.5689,-4.7161 9.5689,-10.8437 l 0,-13.75 c 0,-1.9162 1.7218,-4.25 6.87,-4.25 l 0,-6.9063 -6.5896,0 z"
           style="font-size:medium;font-style:normal;font-variant:normal;font-weight:normal;font-stretch:normal;text-indent:0;text-align:start;text-decoration:none;line-height:normal;letter-spacing:normal;word-spacing:normal;text-transform:none;direction:ltr;block-progression:tb;writing-mode:lr-tb;text-anchor:start;baseline-shift:baseline;color:#000000;fill:#000000;fill-opacity:1;stroke:none;stroke-width:1px;marker:none;visibility:visible;display:inline;overflow:visible;enable-background:accumulate;font-family:Sans;-inkscape-font-specification:Sans"
           inkscape:connector-curvature="0" />
      </g>
      <g
         transform="translate(-20.992232,-188.51068)"
         style="fill:#ffffff"
         id="g3242">
        <path
           id="path3224"
           d="m 1692.251,1365.2671 c 4.71,0 9.4638,5.1371 9.4638,9.3126 l 0,15.8124 c 0,4.7983 9.3277,9.3868 14.5112,10.625 -5.1835,1.2383 -14.5112,5.8268 -14.5112,10.625 l 0,15.8126 c 0,4.1754 -4.7538,9.3124 -9.4638,9.3124 l -6.5896,0 0,-6.9062 c 5.1482,0 6.87,-2.3338 6.87,-4.25 l 0,-13.75 c 0,-6.1276 5.3486,-10.8438 9.5689,-10.8438 -4.2203,0 -9.5689,-4.7161 -9.5689,-10.8437 l 0,-13.75 c 0,-1.9162 -1.7218,-4.25 -6.87,-4.25 l 0,-6.9063 6.5896,0 z"
           style="font-size:medium;font-style:normal;font-variant:normal;font-weight:normal;font-stretch:normal;text-indent:0;text-align:start;text-decoration:none;line-height:normal;letter-spacing:normal;word-spacing:normal;text-transform:none;direction:ltr;block-progression:tb;writing-mode:lr-tb;text-anchor:start;baseline-shift:baseline;color:#000000;fill:#ffffff;fill-opacity:1;stroke:none;stroke-width:1px;marker:none;visibility:visible;display:inline;overflow:visible;enable-background:accumulate;font-family:Sans;-inkscape-font-specification:Sans"
           inkscape:connector-curvature="0" />
        <path
           inkscape:connector-curvature="0"
           style="font-size:medium;font-style:normal;font-variant:normal;font-weight:normal;font-stretch:normal;text-indent:0;text-align:start;text-decoration:none;line-height:normal;letter-spacing:normal;word-spacing:normal;text-transform:none;direction:ltr;block-progression:tb;writing-mode:lr-tb;text-anchor:start;baseline-shift:baseline;color:#000000;fill:#ffffff;fill-opacity:1;stroke:none;stroke-width:1px;marker:none;visibility:visible;display:inline;overflow:visible;enable-background:accumulate;font-family:Sans;-inkscape-font-specification:Sans"
           d="m 1556.0617,1365.2671 c -4.71,0 -9.4638,5.1371 -9.4638,9.3126 l 0,15.8124 c 0,4.7983 -9.3277,9.3868 -14.5112,10.625 5.1835,1.2383 14.5112,5.8268 14.5112,10.625 l 0,15.8126 c 0,4.1754 4.7538,9.3124 9.4638,9.3124 l 6.5896,0 0,-6.9062 c -5.1482,0 -6.87,-2.3338 -6.87,-4.25 l 0,-13.75 c 0,-6.1276 -5.3486,-10.8438 -9.5689,-10.8438 4.2203,0 9.5689,-4.7161 9.5689,-10.8437 l 0,-13.75 c 0,-1.9162 1.7218,-4.25 6.87,-4.25 l 0,-6.9063 -6.5896,0 z"
           id="path3226" />
      </g>
    </g>
  </g>
</svg>
